<svg xmlns="http://www.w3.org/2000/svg" width="1240" height="820" viewBox="0 0 1240 820"><rect width="1240" height="820" fill="white"/><text x="620" y="26" text-anchor="middle" font-family="Arial" font-size="15" font-weight="bold" fill="#26215C">Arquitetura Lógica Final — Smart Street Light (12 packages)</text><text x="8" y="62" font-family="Arial" font-size="10" font-weight="bold" fill="#993556">INTERFACES</text><text x="8" y="292" font-family="Arial" font-size="10" font-weight="bold" fill="#185FA5">CONTROLADORES</text><text x="8" y="592" font-family="Arial" font-size="10" font-weight="bold" fill="#3B6D11">DADOS</text><path d="M137 356 C 137 491, 137 491, 137 626" fill="none" stroke="#888" stroke-width="0.8"/><path d="M242 341 C 242 341, 262 341, 262 341" fill="none" stroke="#888" stroke-width="0.8"/><path d="M137 392 C 137 527, 137 527, 137 662" fill="none" stroke="#888" stroke-width="0.8"/><path d="M367 356 C 367 527, 137 527, 137 698" fill="none" stroke="#888" stroke-width="0.8"/><path d="M367 392 C 367 563, 137 563, 137 734" fill="none" stroke="#888" stroke-width="0.8"/><path d="M367 362 C 367 244, 837 244, 837 126" fill="none" stroke="#888" stroke-width="0.8"/><path d="M367 428 C 367 599, 137 599, 137 770" fill="none" stroke="#888" stroke-width="0.8"/><path d="M367 398 C 367 262, 537 262, 537 126" fill="none" stroke="#888" stroke-width="0.8"/><path d="M607 356 C 607 491, 447 491, 447 626" fill="none" stroke="#888" stroke-width="0.8"/><path d="M607 326 C 607 226, 157 226, 157 126" fill="none" stroke="#888" stroke-width="0.8"/><path d="M607 392 C 607 527, 447 527, 447 662" fill="none" stroke="#888" stroke-width="0.8"/><path d="M502 377 C 502 359, 242 359, 242 341" fill="none" stroke="#888" stroke-width="0.8"/><path d="M607 428 C 607 563, 447 563, 447 698" fill="none" stroke="#888" stroke-width="0.8"/><path d="M607 398 C 607 280, 157 280, 157 162" fill="none" stroke="#888" stroke-width="0.8"/><path d="M857 356 C 857 491, 727 491, 727 626" fill="none" stroke="#888" stroke-width="0.8"/><path d="M857 326 C 857 262, 157 262, 157 198" fill="none" stroke="#888" stroke-width="0.8"/><path d="M752 341 C 752 377, 472 377, 472 413" fill="none" stroke="#888" stroke-width="0.8"/><path d="M857 392 C 857 527, 727 527, 727 662" fill="none" stroke="#888" stroke-width="0.8"/><path d="M1107 356 C 1107 491, 987 491, 987 626" fill="none" stroke="#888" stroke-width="0.8"/><path d="M1107 326 C 1107 244, 537 244, 537 162" fill="none" stroke="#888" stroke-width="0.8"/><path d="M1107 356 C 1107 509, 447 509, 447 662" fill="none" stroke="#888" stroke-width="0.8"/><rect x="40" y="70" width="234" height="138" fill="none" stroke="#A33" stroke-width="1.1"/><rect x="40" y="70" width="234" height="20" fill="#F1EFE8" stroke="#A33" stroke-width="0.7"/><text x="46" y="84" font-family="Arial" font-size="9" font-weight="bold" fill="#26215C">{P10} Interfaces de Operação</text><rect x="52" y="96" width="210" height="30" rx="2" fill="#FBEAF0" stroke="#993556" stroke-width="1"/><text x="157.0" y="107" text-anchor="middle" font-family="Arial" font-size="7" fill="#993556">«i»</text><text x="157.0" y="119" text-anchor="middle" font-family="Arial" font-size="8" font-weight="bold" fill="#26215C">Interface de Notificação</text><rect x="52" y="132" width="210" height="30" rx="2" fill="#FBEAF0" stroke="#993556" stroke-width="1"/><text x="157.0" y="143" text-anchor="middle" font-family="Arial" font-size="7" fill="#993556">«i»</text><text x="157.0" y="155" text-anchor="middle" font-family="Arial" font-size="8" font-weight="bold" fill="#26215C">Interface de Controlo Operacional</text><rect x="52" y="168" width="210" height="30" rx="2" fill="#FBEAF0" stroke="#993556" stroke-width="1"/><text x="157.0" y="179" text-anchor="middle" font-family="Arial" font-size="7" fill="#993556">«i»</text><text x="157.0" y="191" text-anchor="middle" font-family="Arial" font-size="8" font-weight="bold" fill="#26215C">Interface de Dashboard e Mapa</text><rect x="420" y="70" width="234" height="102" fill="none" stroke="#A33" stroke-width="1.1"/><rect x="420" y="70" width="234" height="20" fill="#F1EFE8" stroke="#A33" stroke-width="0.7"/><text x="426" y="84" font-family="Arial" font-size="9" font-weight="bold" fill="#26215C">{P11} Interfaces de Administração</text><rect x="432" y="96" width="210" height="30" rx="2" fill="#FBEAF0" stroke="#993556" stroke-width="1"/><text x="537.0" y="107" text-anchor="middle" font-family="Arial" font-size="7" fill="#993556">«i»</text><text x="537.0" y="119" text-anchor="middle" font-family="Arial" font-size="8" font-weight="bold" fill="#26215C">Interface de Gestão de Postes</text><rect x="432" y="132" width="210" height="30" rx="2" fill="#FBEAF0" stroke="#993556" stroke-width="1"/><text x="537.0" y="143" text-anchor="middle" font-family="Arial" font-size="7" fill="#993556">«i»</text><text x="537.0" y="155" text-anchor="middle" font-family="Arial" font-size="8" font-weight="bold" fill="#26215C">Interface de Administração</text><rect x="720" y="70" width="234" height="66" fill="none" stroke="#A33" stroke-width="1.1"/><rect x="720" y="70" width="234" height="20" fill="#F1EFE8" stroke="#A33" stroke-width="0.7"/><text x="726" y="84" font-family="Arial" font-size="9" font-weight="bold" fill="#26215C">{P12} Interfaces de Consulta</text><rect x="732" y="96" width="210" height="30" rx="2" fill="#FBEAF0" stroke="#993556" stroke-width="1"/><text x="837.0" y="107" text-anchor="middle" font-family="Arial" font-size="7" fill="#993556">«i»</text><text x="837.0" y="119" text-anchor="middle" font-family="Arial" font-size="8" font-weight="bold" fill="#26215C">Interface de Consulta</text><rect x="20" y="300" width="234" height="102" fill="none" stroke="#A33" stroke-width="1.1"/><rect x="20" y="300" width="234" height="20" fill="#F1EFE8" stroke="#A33" stroke-width="0.7"/><text x="26" y="314" font-family="Arial" font-size="9" font-weight="bold" fill="#26215C">{P1} Controladores de Monitorização</text><rect x="32" y="326" width="210" height="30" rx="2" fill="#E6F1FB" stroke="#185FA5" stroke-width="1"/><text x="137.0" y="337" text-anchor="middle" font-family="Arial" font-size="7" fill="#185FA5">«c»</text><text x="137.0" y="349" text-anchor="middle" font-family="Arial" font-size="8" font-weight="bold" fill="#26215C">Controlo de Monitorização IoT</text><rect x="32" y="362" width="210" height="30" rx="2" fill="#E6F1FB" stroke="#185FA5" stroke-width="1"/><text x="137.0" y="373" text-anchor="middle" font-family="Arial" font-size="7" fill="#185FA5">«c»</text><text x="137.0" y="385" text-anchor="middle" font-family="Arial" font-size="8" font-weight="bold" fill="#26215C">Controlo de Estado dos Postes</text><rect x="250" y="300" width="234" height="138" fill="none" stroke="#A33" stroke-width="1.1"/><rect x="250" y="300" width="234" height="20" fill="#F1EFE8" stroke="#A33" stroke-width="0.7"/><text x="256" y="314" font-family="Arial" font-size="9" font-weight="bold" fill="#26215C">{P2} Controladores de Dados</text><rect x="262" y="326" width="210" height="30" rx="2" fill="#E6F1FB" stroke="#185FA5" stroke-width="1"/><text x="367.0" y="337" text-anchor="middle" font-family="Arial" font-size="7" fill="#185FA5">«c»</text><text x="367.0" y="349" text-anchor="middle" font-family="Arial" font-size="8" font-weight="bold" fill="#26215C">Controlo de Armazenamento</text><rect x="262" y="362" width="210" height="30" rx="2" fill="#E6F1FB" stroke="#185FA5" stroke-width="1"/><text x="367.0" y="373" text-anchor="middle" font-family="Arial" font-size="7" fill="#185FA5">«c»</text><text x="367.0" y="385" text-anchor="middle" font-family="Arial" font-size="8" font-weight="bold" fill="#26215C">Controlo de Consulta</text><rect x="262" y="398" width="210" height="30" rx="2" fill="#E6F1FB" stroke="#185FA5" stroke-width="1"/><text x="367.0" y="409" text-anchor="middle" font-family="Arial" font-size="7" fill="#185FA5">«c»</text><text x="367.0" y="421" text-anchor="middle" font-family="Arial" font-size="8" font-weight="bold" fill="#26215C">Controlo de Gestão de Postes</text><rect x="490" y="300" width="234" height="138" fill="none" stroke="#A33" stroke-width="1.1"/><rect x="490" y="300" width="234" height="20" fill="#F1EFE8" stroke="#A33" stroke-width="0.7"/><text x="496" y="314" font-family="Arial" font-size="9" font-weight="bold" fill="#26215C">{P3} Controladores de Alertas</text><rect x="502" y="326" width="210" height="30" rx="2" fill="#E6F1FB" stroke="#185FA5" stroke-width="1"/><text x="607.0" y="337" text-anchor="middle" font-family="Arial" font-size="7" fill="#185FA5">«c»</text><text x="607.0" y="349" text-anchor="middle" font-family="Arial" font-size="8" font-weight="bold" fill="#26215C">Controlo de Alertas</text><rect x="502" y="362" width="210" height="30" rx="2" fill="#E6F1FB" stroke="#185FA5" stroke-width="1"/><text x="607.0" y="373" text-anchor="middle" font-family="Arial" font-size="7" fill="#185FA5">«c»</text><text x="607.0" y="385" text-anchor="middle" font-family="Arial" font-size="8" font-weight="bold" fill="#26215C">Motor de Decisão</text><rect x="502" y="398" width="210" height="30" rx="2" fill="#E6F1FB" stroke="#185FA5" stroke-width="1"/><text x="607.0" y="409" text-anchor="middle" font-family="Arial" font-size="7" fill="#185FA5">«c»</text><text x="607.0" y="421" text-anchor="middle" font-family="Arial" font-size="8" font-weight="bold" fill="#26215C">Controlo Manual de Postes</text><rect x="740" y="300" width="234" height="102" fill="none" stroke="#A33" stroke-width="1.1"/><rect x="740" y="300" width="234" height="20" fill="#F1EFE8" stroke="#A33" stroke-width="0.7"/><text x="746" y="314" font-family="Arial" font-size="9" font-weight="bold" fill="#26215C">{P4} Controladores de Dashboard</text><rect x="752" y="326" width="210" height="30" rx="2" fill="#E6F1FB" stroke="#185FA5" stroke-width="1"/><text x="857.0" y="337" text-anchor="middle" font-family="Arial" font-size="7" fill="#185FA5">«c»</text><text x="857.0" y="349" text-anchor="middle" font-family="Arial" font-size="8" font-weight="bold" fill="#26215C">Controlo de Visualização</text><rect x="752" y="362" width="210" height="30" rx="2" fill="#E6F1FB" stroke="#185FA5" stroke-width="1"/><text x="857.0" y="373" text-anchor="middle" font-family="Arial" font-size="7" fill="#185FA5">«c»</text><text x="857.0" y="385" text-anchor="middle" font-family="Arial" font-size="8" font-weight="bold" fill="#26215C">Controlo de Relatórios</text><rect x="990" y="300" width="234" height="66" fill="none" stroke="#A33" stroke-width="1.1"/><rect x="990" y="300" width="234" height="20" fill="#F1EFE8" stroke="#A33" stroke-width="0.7"/><text x="996" y="314" font-family="Arial" font-size="9" font-weight="bold" fill="#26215C">{P5} Controladores de Administração</text><rect x="1002" y="326" width="210" height="30" rx="2" fill="#E6F1FB" stroke="#185FA5" stroke-width="1"/><text x="1107.0" y="337" text-anchor="middle" font-family="Arial" font-size="7" fill="#185FA5">«c»</text><text x="1107.0" y="349" text-anchor="middle" font-family="Arial" font-size="8" font-weight="bold" fill="#26215C">Controlo de Configuração</text><rect x="20" y="600" width="234" height="210" fill="none" stroke="#A33" stroke-width="1.1"/><rect x="20" y="600" width="234" height="20" fill="#F1EFE8" stroke="#A33" stroke-width="0.7"/><text x="26" y="614" font-family="Arial" font-size="9" font-weight="bold" fill="#26215C">{P6} Dados de Monitorização</text><rect x="32" y="626" width="210" height="30" rx="2" fill="#EAF3DE" stroke="#3B6D11" stroke-width="1"/><text x="137.0" y="637" text-anchor="middle" font-family="Arial" font-size="7" fill="#3B6D11">«d»</text><text x="137.0" y="649" text-anchor="middle" font-family="Arial" font-size="8" font-weight="bold" fill="#26215C">Dados de Leitura</text><rect x="32" y="662" width="210" height="30" rx="2" fill="#EAF3DE" stroke="#3B6D11" stroke-width="1"/><text x="137.0" y="673" text-anchor="middle" font-family="Arial" font-size="7" fill="#3B6D11">«d»</text><text x="137.0" y="685" text-anchor="middle" font-family="Arial" font-size="8" font-weight="bold" fill="#26215C">Dados de Estado dos Postes</text><rect x="32" y="698" width="210" height="30" rx="2" fill="#EAF3DE" stroke="#3B6D11" stroke-width="1"/><text x="137.0" y="709" text-anchor="middle" font-family="Arial" font-size="7" fill="#3B6D11">«d»</text><text x="137.0" y="721" text-anchor="middle" font-family="Arial" font-size="8" font-weight="bold" fill="#26215C">Dados de Leitura Persistida</text><rect x="32" y="734" width="210" height="30" rx="2" fill="#EAF3DE" stroke="#3B6D11" stroke-width="1"/><text x="137.0" y="745" text-anchor="middle" font-family="Arial" font-size="7" fill="#3B6D11">«d»</text><text x="137.0" y="757" text-anchor="middle" font-family="Arial" font-size="8" font-weight="bold" fill="#26215C">Dados de Histórico</text><rect x="32" y="770" width="210" height="30" rx="2" fill="#EAF3DE" stroke="#3B6D11" stroke-width="1"/><text x="137.0" y="781" text-anchor="middle" font-family="Arial" font-size="7" fill="#3B6D11">«d»</text><text x="137.0" y="793" text-anchor="middle" font-family="Arial" font-size="8" font-weight="bold" fill="#26215C">Dados de Poste</text><rect x="330" y="600" width="234" height="138" fill="none" stroke="#A33" stroke-width="1.1"/><rect x="330" y="600" width="234" height="20" fill="#F1EFE8" stroke="#A33" stroke-width="0.7"/><text x="336" y="614" font-family="Arial" font-size="9" font-weight="bold" fill="#26215C">{P7} Dados de Alertas</text><rect x="342" y="626" width="210" height="30" rx="2" fill="#EAF3DE" stroke="#3B6D11" stroke-width="1"/><text x="447.0" y="637" text-anchor="middle" font-family="Arial" font-size="7" fill="#3B6D11">«d»</text><text x="447.0" y="649" text-anchor="middle" font-family="Arial" font-size="8" font-weight="bold" fill="#26215C">Dados de Alerta</text><rect x="342" y="662" width="210" height="30" rx="2" fill="#EAF3DE" stroke="#3B6D11" stroke-width="1"/><text x="447.0" y="673" text-anchor="middle" font-family="Arial" font-size="7" fill="#3B6D11">«d»</text><text x="447.0" y="685" text-anchor="middle" font-family="Arial" font-size="8" font-weight="bold" fill="#26215C">Dados de Regra</text><rect x="342" y="698" width="210" height="30" rx="2" fill="#EAF3DE" stroke="#3B6D11" stroke-width="1"/><text x="447.0" y="709" text-anchor="middle" font-family="Arial" font-size="7" fill="#3B6D11">«d»</text><text x="447.0" y="721" text-anchor="middle" font-family="Arial" font-size="8" font-weight="bold" fill="#26215C">Dados de Comando Manual</text><rect x="610" y="600" width="234" height="102" fill="none" stroke="#A33" stroke-width="1.1"/><rect x="610" y="600" width="234" height="20" fill="#F1EFE8" stroke="#A33" stroke-width="0.7"/><text x="616" y="614" font-family="Arial" font-size="9" font-weight="bold" fill="#26215C">{P8} Dados de Dashboard</text><rect x="622" y="626" width="210" height="30" rx="2" fill="#EAF3DE" stroke="#3B6D11" stroke-width="1"/><text x="727.0" y="637" text-anchor="middle" font-family="Arial" font-size="7" fill="#3B6D11">«d»</text><text x="727.0" y="649" text-anchor="middle" font-family="Arial" font-size="8" font-weight="bold" fill="#26215C">Dados do Mapa</text><rect x="622" y="662" width="210" height="30" rx="2" fill="#EAF3DE" stroke="#3B6D11" stroke-width="1"/><text x="727.0" y="673" text-anchor="middle" font-family="Arial" font-size="7" fill="#3B6D11">«d»</text><text x="727.0" y="685" text-anchor="middle" font-family="Arial" font-size="8" font-weight="bold" fill="#26215C">Dados de Relatório</text><rect x="870" y="600" width="234" height="66" fill="none" stroke="#A33" stroke-width="1.1"/><rect x="870" y="600" width="234" height="20" fill="#F1EFE8" stroke="#A33" stroke-width="0.7"/><text x="876" y="614" font-family="Arial" font-size="9" font-weight="bold" fill="#26215C">{P9} Dados de Administração</text><rect x="882" y="626" width="210" height="30" rx="2" fill="#EAF3DE" stroke="#3B6D11" stroke-width="1"/><text x="987.0" y="637" text-anchor="middle" font-family="Arial" font-size="7" fill="#3B6D11">«d»</text><text x="987.0" y="649" text-anchor="middle" font-family="Arial" font-size="8" font-weight="bold" fill="#26215C">Dados de Configuração</text></svg>